<svg xmlns="http://www.w3.org/2000/svg" version="1.1" xmlns:xlink="http://www.w3.org/1999/xlink" xmlns:svgjs="http://svgjs.dev/svgjs" width="1000" height="623" viewBox="0 0 1000 623"><g transform="matrix(1,0,0,1,-0.6060606060606233,88.8738947721398)"><svg viewBox="0 0 396 247" data-background-color="#ffffff" preserveAspectRatio="xMidYMid meet" height="623" width="1000" xmlns="http://www.w3.org/2000/svg" xmlns:xlink="http://www.w3.org/1999/xlink"><g id="tight-bounds" transform="matrix(1,0,0,1,0.2400000000000091,-0.09999999999999432)"><svg viewBox="0 0 395.52 247.2" height="247.2" width="395.52"><g><svg></svg></g><g><svg viewBox="0 0 395.52 247.2" height="247.2" width="395.52"><g transform="matrix(1,0,0,1,95.25276458015266,47.215199999999996)"><svg viewBox="0 0 205.01447083969467 152.7696" height="152.7696" width="205.01447083969467"><g><svg viewBox="0 0 205.01447083969467 152.7696" height="152.7696" width="205.01447083969467"><g><svg viewBox="0 0 205.01447083969467 152.7696" height="152.7696" width="205.01447083969467"><g><svg viewBox="0 0 205.01447083969467 152.7696" height="152.7696" width="205.01447083969467"><g id="textblocktransform"><svg viewBox="0 0 205.01447083969467 152.7696" height="152.7696" width="205.01447083969467" id="textblock"><g><svg viewBox="0 0 205.01447083969467 152.7696" height="152.7696" width="205.01447083969467"><g transform="matrix(1,0,0,1,0,0)"><svg width="205.01447083969467" viewBox="3.3499999046325684 -32.75 43.95000076293945 32.75" height="152.7696" data-palette-color="#636365"><path d="M10.6 0L3.35 0 3.35-32.75 11.05-32.75Q16.55-32.75 19.23-30.78 21.9-28.8 21.9-24.25L21.9-24.25Q21.9-18.55 16.35-16.85L16.35-16.85Q19.65-16.1 21.23-14.35 22.8-12.6 22.8-9.25L22.8-9.25Q22.8-3.95 19.8-1.98 16.8 0 10.6 0L10.6 0ZM19.9-9.25L19.9-9.25Q19.9-15.35 11.6-15.35L11.6-15.35 6.1-15.35 6.1-2.45 10.6-2.45Q15.25-2.45 17.57-3.93 19.9-5.4 19.9-9.25ZM16.4-29.4L16.4-29.4Q14.25-30.3 11.05-30.3L11.05-30.3 6.1-30.3 6.1-17.8 11.45-17.8Q14.6-17.8 16.8-19.23 19-20.65 19.05-24.45 19.1-28.25 16.4-29.4ZM30.45 0L27.7 0 27.7-32.75 30.45-32.75 30.45-17.55 44.55-17.55 44.55-32.75 47.3-32.75 47.3 0 44.55 0 44.55-15 30.45-15 30.45 0Z" opacity="1" transform="matrix(1,0,0,1,0,0)" fill="#636365" class="wordmark-text-0" data-fill-palette-color="primary" id="text-0"></path></svg></g></svg></g></svg></g></svg></g><g></g></svg></g></svg></g></svg></g><g><path d="M151.529 11.15A102.507 102.507 0 0 1 243.991 11.15L230.214 11.15A88.73 88.73 0 0 0 165.306 11.15L151.529 11.15M151.529 236.05A102.507 102.507 0 0 0 243.991 236.05L230.214 236.05A88.73 88.73 0 0 1 165.306 236.05L151.529 236.05" fill="#636365" stroke="transparent" data-fill-palette-color="tertiary"></path></g></svg></g><defs></defs></svg><rect width="395.52" height="247.2" fill="none" stroke="none" visibility="hidden"></rect></g></svg></g></svg>